<svg data-v-423bf9ae="" xmlns="http://www.w3.org/2000/svg" viewBox="0 0 428 90" class="iconLeft"><!----><!----><!----><g data-v-423bf9ae="" id="eeaf1ed1-5670-47d0-adce-96ffab78c4eb" fill="#FFFFFF" transform="matrix(6.1224488604322,0,0,6.1224488604322,97.93938871683144,10.714287480008146)"><path d="M3.93 1.16L3.93 1.16Q4.27 1.57 4.27 2.07L4.27 2.07L4.27 3.12L4.27 3.40L3.99 3.40L3.01 3.40L2.73 3.40L2.73 3.12L2.73 2.23L1.55 2.23L1.55 3.98L1.55 4.05L2.87 4.05Q3.46 4.05 3.86 4.45Q4.27 4.86 4.27 5.45L4.27 5.45L4.27 6.85L4.27 9.11Q4.27 9.62 3.93 10.02L3.93 10.02Q3.60 10.40 3.09 10.49L3.09 10.49L3.07 10.50L3.05 10.50L1.22 10.50L1.20 10.50L1.18 10.49Q0.67 10.40 0.34 10.02L0.34 10.02Q0 9.62 0 9.11L0 9.11L0 8.06L0 7.78L0.28 7.78L1.27 7.78L1.55 7.78L1.55 8.06L1.55 8.96L2.73 8.96L2.73 5.60L1.40 5.60Q0.81 5.60 0.41 5.19Q0 4.79 0 4.20L0 4.20L0 4.10L0 3.98L0 2.07Q0 1.57 0.34 1.16L0.34 1.16Q0.67 0.78 1.18 0.70L1.18 0.70L1.20 0.70L1.22 0.70L3.05 0.70L3.07 0.70L3.09 0.70Q3.60 0.78 3.93 1.16ZM8.92 0.70L8.92 0.70L11.31 0.70L11.31 10.50L9.77 10.50L9.77 5.24L8.92 9.77L7.57 9.77L6.72 5.24L6.72 10.50L5.18 10.50L5.18 0.70L7.57 0.70L8.25 4.61L8.92 0.70ZM15.72 0.70L15.72 0.70L17.30 10.50L15.74 10.50L14.77 3.70L14.38 6.90L14.38 6.92L14.77 6.92L14.77 8.46L14.13 8.46L13.80 10.50L12.25 10.50L12.57 8.46L12.22 8.46L12.22 6.92L12.82 6.92L13.82 0.70L15.72 0.70ZM21.32 5.60L22.64 10.50L21.15 10.50L19.39 4.06L20.76 4.06L20.76 2.25L19.39 2.25L19.39 4.06L17.85 1.02L17.85 0.70L21.18 0.70Q21.62 0.70 21.92 0.98Q22.23 1.26 22.29 1.68L22.29 1.68L22.30 4.48L22.30 4.49Q22.30 4.91 22.02 5.23Q21.73 5.54 21.32 5.60L21.32 5.60ZM17.85 10.50L17.85 4.06L19.39 4.06L19.39 10.50L17.85 10.50ZM27.61 0.70L27.61 0.70L27.61 2.24L26.22 2.24L26.22 8.67L26.22 10.50L24.68 10.50L24.68 8.67L24.68 2.24L23.20 2.24L23.20 0.70L24.68 0.70L26.22 0.70L27.61 0.70ZM35.27 1.68L35.28 1.82L35.28 4.48L35.28 4.49Q35.28 4.94 34.95 5.27Q34.62 5.60 34.16 5.60L34.16 5.60L33.05 5.60L32.37 5.60L32.37 8.96L32.37 10.50L30.83 10.50L30.83 9.48L30.83 1.22L30.83 0.70L31.82 0.70L32.37 0.70L33.88 0.70L34.16 0.70Q34.59 0.70 34.90 0.98Q35.21 1.26 35.27 1.68L35.27 1.68ZM33.74 4.06L33.74 2.25L32.37 2.25L32.37 4.06L33.74 4.06ZM39.68 5.60L40.99 10.50L39.51 10.50L37.74 4.06L39.12 4.06L39.12 2.25L37.74 2.25L37.74 4.06L36.20 1.02L36.20 0.70L39.54 0.70Q39.97 0.70 40.28 0.98Q40.59 1.26 40.64 1.68L40.64 1.68L40.66 4.48L40.66 4.49Q40.66 4.91 40.37 5.23Q40.08 5.54 39.68 5.60L39.68 5.60ZM36.20 10.50L36.20 4.06L37.74 4.06L37.74 10.50L36.20 10.50ZM43.11 10.50L43.11 10.50L41.57 10.50L41.57 0.70L43.11 0.70L43.11 10.50ZM47.52 0.70L47.52 0.70L48.50 0.70L48.50 0.70L48.50 10.50L48.50 10.50L46.96 10.50L46.96 10.50L45.56 6.12L45.56 10.50L45.56 10.50L44.02 10.50L44.02 0.70L44.58 0.70L44.58 0.70L45.56 0.70L45.56 0.70L45.56 0.73L46.96 5.35L46.96 0.70L47.52 0.70L47.52 0.70ZM53.80 0.70L53.80 0.70L53.80 2.24L52.42 2.24L52.42 8.67L52.42 10.50L50.88 10.50L50.88 8.67L50.88 2.24L49.39 2.24L49.39 0.70L50.88 0.70L52.42 0.70L53.80 0.70Z"></path></g><!----><g data-v-423bf9ae="" id="f4180cb2-e38a-4207-9bfc-dc023a699683" transform="matrix(1.09671842955865,0,0,1.09671842955865,-12.042884662132785,-4.479143099664597)" stroke="none" fill="#00FF04"><path d="M64.031 24.725H29.227v19.856h34.806l-.002-19.856zm-4.123 15.732H33.349V28.849h26.559v11.608zM38.209 63.499h16.84v3.747h-16.84zM29.787 56.007h33.682v3.745H29.787zM29.787 48.515h33.682v3.746H29.787z"></path><path d="M46.63 87.017L11.096 66.502V25.469L46.63 4.954l35.532 20.515v41.03L46.63 87.017zM14.7 64.418l31.929 18.435 31.928-18.435V27.552L46.63 9.117 14.7 27.552v36.866z"></path></g><!----></svg>